<?xml version="1.0" encoding="UTF-8"?>
<svg xmlns="http://www.w3.org/2000/svg"
     viewBox="0 0 512 512"
     fill="white">
    <g transform="translate(121.6, 166.4)">
        <g transform="translate(0, 0) scale(0.35, .35)">
            <path d="M214.6 41.4c-12.5-12.5-32.8-12.5-45.3 0l-160 160c-12.5 12.5-12.5 32.8 0 45.3s32.8 12.5 45.3 0L160 141.2V448c0 17.7 14.3 32 32 32s32-14.3 32-32V141.2L329.4 246.6c12.5 12.5 32.8 12.5 45.3 0s12.5-32.8 0-45.3l-160-160z"/>
        </g>
        <g transform="translate(134.4, 0) scale(0.35, .35)">
            <path d="M169.4 470.6c12.5 12.5 32.8 12.5 45.3 0l160-160c12.5-12.5 12.5-32.8 0-45.3s-32.8-12.5-45.3 0L224 370.8 224 64c0-17.7-14.3-32-32-32s-32 14.3-32 32l0 306.7L54.6 265.4c-12.5-12.5-32.8-12.5-45.3 0s-12.5 32.8 0 45.3l160 160z"/>
        </g>
    </g>
    
    <text x="50" y="120" font-family="segoe ui" font-size="120px" font-weight="bold">MK1</text>
    <text x="200" y="480" font-family="segoe ui" font-size="120px" font-weight="bold">MK6</text>
</svg>
